<svg width="19" height="13" viewBox="0 0 19 13" fill="none" xmlns="http://www.w3.org/2000/svg">
<path d="M5.12531 6.45381L5.12529 6.45383L5.12653 6.45498C5.30554 6.62213 5.58528 6.61742 5.75839 6.4443C5.93151 6.27118 5.93624 5.99143 5.76908 5.81243L5.7691 5.81241L5.76789 5.8112L3.742 3.78531C3.56421 3.60752 3.27614 3.60751 3.09835 3.78532L3.09834 3.78532L1.07351 5.81121L1.07349 5.81119L1.07233 5.81243C0.905172 5.99144 0.909889 6.27118 1.08301 6.4443C1.25613 6.61742 1.53588 6.62214 1.71488 6.45498L1.7149 6.455L1.71611 6.45379L2.96551 5.20439L2.96551 9.50902L2.96551 9.50908C2.96766 11.2513 4.37962 12.6632 6.12181 12.6654H6.12187H13.2854C13.5367 12.6654 13.7406 12.4615 13.7406 12.2102C13.7406 11.9589 13.5367 11.755 13.2854 11.755H6.12191C4.88226 11.754 3.8769 10.7486 3.87587 9.50898V5.2054L5.12531 6.45381Z" fill="#3F3F46" stroke="#3F3F46" stroke-width="0.1"/>
<path d="M17.2814 7.16073L17.2814 7.16072L17.2806 7.16154L16.0312 8.40998V4.10636V4.1063C16.029 2.3641 14.6171 0.952196 12.8749 0.95H12.8748H5.7113C5.46 0.95 5.25613 1.15387 5.25613 1.40518C5.25613 1.65648 5.46 1.86035 5.7113 1.86035H12.8748C14.1144 1.86139 15.1198 2.86675 15.1208 4.1064V8.40991L13.8714 7.1605L13.7861 7.07515V7.09818C13.6118 6.99818 13.3862 7.02319 13.2383 7.17106C13.0652 7.34417 13.0605 7.62392 13.2276 7.80292L13.2276 7.80294L13.2288 7.80415L15.2547 9.83004C15.4325 10.0078 15.7206 10.0078 15.8984 9.83004L17.9243 7.80415L17.9243 7.80416L17.9252 7.80318C18.0947 7.62416 18.0911 7.34327 17.917 7.16799L17.9168 7.16775C17.7415 6.99365 17.4605 6.99 17.2814 7.16073Z" fill="#3F3F46" stroke="#3F3F46" stroke-width="0.1"/>
</svg>
