<svg width="18" height="18" viewBox="0 0 18 18" fill="none" xmlns="http://www.w3.org/2000/svg">
<g clip-path="url(#clip0_1_6090)">
<path d="M7.51079 2.17094C7.88981 0.609686 10.1102 0.609687 10.4892 2.17094C10.7341 3.17949 11.8896 3.65811 12.7758 3.11809C14.1478 2.28212 15.7179 3.85218 14.8819 5.22416C14.3419 6.11045 14.8205 7.26593 15.8291 7.51078C17.3903 7.8898 17.3903 10.1102 15.8291 10.4892C14.8205 10.7341 14.3419 11.8896 14.8819 12.7758C15.7179 14.1478 14.1478 15.7179 12.7758 14.8819C11.8896 14.3419 10.7341 14.8205 10.4892 15.8291C10.1102 17.3903 7.88981 17.3903 7.51079 15.8291C7.26595 14.8205 6.11046 14.3419 5.22418 14.8819C3.85219 15.7179 2.28214 14.1478 3.1181 12.7758C3.65812 11.8896 3.1795 10.7341 2.17095 10.4892C0.609698 10.1102 0.609697 7.8898 2.17095 7.51078C3.1795 7.26593 3.65812 6.11045 3.1181 5.22416C2.28214 3.85218 3.85219 2.28212 5.22418 3.11809C6.11046 3.65811 7.26595 3.17949 7.51079 2.17094Z" stroke="#3F3F46" stroke-width="1.2" stroke-linecap="round" stroke-linejoin="round"/>
<path d="M11.6667 9C11.6667 10.4728 10.4728 11.6667 9.00001 11.6667C7.52725 11.6667 6.33334 10.4728 6.33334 9C6.33334 7.52724 7.52725 6.33333 9.00001 6.33333C10.4728 6.33333 11.6667 7.52724 11.6667 9Z" stroke="#3F3F46" stroke-width="1.2" stroke-linecap="round" stroke-linejoin="round"/>
</g>
<defs>
<clipPath id="clip0_1_6090">
<rect width="18" height="18" fill="white"/>
</clipPath>
</defs>
</svg>
