<svg width="18" height="20" viewBox="0 0 18 20" fill="none" xmlns="http://www.w3.org/2000/svg">
<path d="M11.1191 0.900391C11.7348 0.900477 12.2688 1.28195 12.4717 1.86719L12.8701 3.01758H16.1982C16.6934 3.01758 17.0996 3.42731 17.0996 3.92383V5.4502C17.0996 5.94669 16.6934 6.35645 16.1982 6.35645H15.9531L14.8545 17.3711C14.7564 18.3535 13.9371 19.0995 12.9561 19.0996H5.04395C4.12424 19.0995 3.34635 18.4442 3.17188 17.5527L3.14551 17.3711L2.04688 6.35645C1.90696 6.35825 1.76979 6.3617 1.6416 6.33984C1.47713 6.31175 1.32271 6.24276 1.16504 6.08984L1.16406 6.08887C1.00158 5.92465 0.900391 5.6984 0.900391 5.4502V3.92383L0.904297 3.83105C0.950877 3.37714 1.33762 3.01758 1.80176 3.01758H5.13086L5.5293 1.86719L5.57129 1.75977C5.7994 1.23557 6.30461 0.9004 6.88184 0.900391H11.1191ZM4.09961 17.2764L4.11328 17.3672C4.19987 17.8117 4.58167 18.1337 5.04297 18.1338H12.9561C13.4483 18.1336 13.851 17.7676 13.8994 17.2764L14.9883 6.35645H3.01172L4.09961 17.2764ZM7.28809 7.93262L7.76465 15.5938L7.77051 15.6934L7.6709 15.6992L6.91211 15.7451L6.8125 15.751L6.80566 15.6514L6.33008 7.98926L6.32422 7.88965L6.42383 7.88379L7.18262 7.83887L7.28223 7.83301L7.28809 7.93262ZM10.8174 7.83789L11.5762 7.88281L11.6758 7.88867L11.6699 7.98926L11.1943 15.6504L11.1875 15.75L11.0879 15.7441L10.3291 15.6992L10.2295 15.6924L10.2354 15.5928L10.7109 7.93164L10.7178 7.83203L10.8174 7.83789ZM1.87305 3.99414V5.37793H16.127V3.9834L1.87305 3.99414ZM6.80566 1.87109C6.65667 1.89302 6.53549 1.9799 6.46582 2.11328L6.43555 2.18359L6.14648 3.01758H11.8545L11.5654 2.18457C11.5057 2.01129 11.3694 1.89755 11.1953 1.87207L11.1191 1.86621H6.88184L6.80566 1.87109Z" fill="#FF7373" stroke="#68727D" stroke-width="0.2"/>
</svg>
