<svg width="20" height="20" viewBox="0 0 20 20" fill="none" xmlns="http://www.w3.org/2000/svg">
<g clip-path="url(#clip0_1_6203)">
<path d="M4.32003 2.86331L4.69911 3.6073L4.69911 3.6073L4.32003 2.86331ZM2.86331 4.32003L2.11932 3.94095L2.11932 3.94095L2.86331 4.32003ZM15.68 17.1367L16.059 17.8807H16.0591L15.68 17.1367ZM17.1367 15.68L16.3927 15.3009V15.3009L17.1367 15.68ZM4.32003 17.1367L4.69911 16.3927L4.32003 17.1367ZM2.86331 15.68L3.6073 15.3009H3.6073L2.86331 15.68ZM18.335 10C18.335 9.53884 17.9612 9.165 17.5 9.165C17.0388 9.165 16.665 9.53884 16.665 10H18.335ZM10 3.335C10.4612 3.335 10.835 2.96116 10.835 2.5C10.835 2.03884 10.4612 1.665 10 1.665V3.335ZM10.211 8.74716L11.0032 9.01121V9.01121L10.211 8.74716ZM10.5967 7.59018L9.80453 7.32612L9.80453 7.32613L10.5967 7.59018ZM10.9946 6.94629L11.5851 7.53673L11.5851 7.53673L10.9946 6.94629ZM14.8378 3.10309L14.2474 2.51266L14.2474 2.51266L14.8378 3.10309ZM16.8969 5.16218L17.4873 5.75261L17.4873 5.75261L16.8969 5.16218ZM13.0537 9.00538L12.4633 8.41494L12.4633 8.41495L13.0537 9.00538ZM12.4098 9.40332L12.6739 10.1955H12.6739L12.4098 9.40332ZM11.2528 9.78898L11.5169 10.5811L11.5169 10.5811L11.2528 9.78898ZM12.8426 9.20239L13.3455 9.86899L13.3455 9.86899L12.8426 9.20239ZM12.6804 9.30263L12.3091 8.55474L12.3091 8.55474L12.6804 9.30263ZM16.8969 3.10309L16.3065 3.69353V3.69353L16.8969 3.10309ZM17.3929 3.6755L18.1411 3.30475L18.1411 3.30475L17.3929 3.6755ZM17.3929 4.58977L18.1411 4.96052L18.1411 4.96052L17.3929 4.58977ZM15.4102 2.60705L15.781 3.35523V3.35523L15.4102 2.60705ZM16.3245 2.60705L15.9537 3.35523L15.9537 3.35523L16.3245 2.60705ZM10.6974 7.31956L11.4453 7.69089L11.4453 7.69089L10.6974 7.31956ZM10.7976 7.15737L10.131 6.6545L10.131 6.6545L10.7976 7.15737ZM10.0192 9.66887L10.8057 9.38841L10.0192 9.66887ZM10.3311 9.98083L10.0507 10.7673L10.3311 9.98083ZM7.83333 18.335H12.1667V16.665H7.83333V18.335ZM1.665 7.83333V12.1667H3.335V7.83333H1.665ZM7.83333 1.665C6.91369 1.665 6.17374 1.66435 5.57601 1.71319C4.96853 1.76282 4.4348 1.86769 3.94095 2.11932L4.69911 3.6073C4.9183 3.49562 5.2078 3.41884 5.712 3.37764C6.22595 3.33565 6.88613 3.335 7.83333 3.335V1.665ZM3.335 7.83333C3.335 6.88613 3.33565 6.22595 3.37764 5.712C3.41884 5.2078 3.49562 4.9183 3.6073 4.69911L2.11932 3.94095C1.86769 4.4348 1.76282 4.96853 1.71319 5.57601C1.66435 6.17374 1.665 6.91369 1.665 7.83333H3.335ZM3.94095 2.11932C3.15663 2.51895 2.51895 3.15663 2.11932 3.94095L3.6073 4.69911C3.84683 4.22902 4.22902 3.84683 4.69911 3.6073L3.94095 2.11932ZM12.1667 18.335C13.0863 18.335 13.8263 18.3356 14.424 18.2868C15.0315 18.2372 15.5652 18.1323 16.059 17.8807L15.3009 16.3927C15.0817 16.5044 14.7922 16.5812 14.288 16.6224C13.774 16.6644 13.1139 16.665 12.1667 16.665V18.335ZM16.665 12.1667C16.665 13.1139 16.6644 13.774 16.6224 14.288C16.5812 14.7922 16.5044 15.0817 16.3927 15.3009L17.8807 16.0591C18.1323 15.5652 18.2372 15.0315 18.2868 14.424C18.3356 13.8263 18.335 13.0863 18.335 12.1667H16.665ZM16.0591 17.8807C16.8434 17.481 17.481 16.8434 17.8807 16.059L16.3927 15.3009C16.1532 15.771 15.771 16.1532 15.3009 16.3927L16.0591 17.8807ZM7.83333 16.665C6.88613 16.665 6.22595 16.6644 5.712 16.6224C5.2078 16.5812 4.9183 16.5044 4.69911 16.3927L3.94095 17.8807C4.4348 18.1323 4.96853 18.2372 5.57601 18.2868C6.17374 18.3356 6.91369 18.335 7.83333 18.335V16.665ZM1.665 12.1667C1.665 13.0863 1.66435 13.8263 1.71319 14.424C1.76282 15.0315 1.86769 15.5652 2.11932 16.059L3.6073 15.3009C3.49562 15.0817 3.41884 14.7922 3.37764 14.288C3.33565 13.774 3.335 13.1139 3.335 12.1667H1.665ZM4.69911 16.3927C4.22902 16.1532 3.84683 15.771 3.6073 15.3009L2.11932 16.059C2.51895 16.8434 3.15663 17.481 3.94095 17.8807L4.69911 16.3927ZM18.335 12.1667V10H16.665V12.1667H18.335ZM7.83333 3.335H10V1.665H7.83333V3.335ZM11.0032 9.01121L11.3888 7.85423L9.80453 7.32613L9.41887 8.48311L11.0032 9.01121ZM11.5851 7.53673L15.4283 3.69353L14.2474 2.51266L10.4042 6.35586L11.5851 7.53673ZM16.3065 4.57174L12.4633 8.41494L13.6441 9.59581L17.4873 5.75261L16.3065 4.57174ZM12.1458 8.61117L10.9888 8.99683L11.5169 10.5811L12.6739 10.1955L12.1458 8.61117ZM12.4633 8.41495C12.4089 8.46928 12.3798 8.49834 12.3572 8.51968C12.3381 8.53777 12.3354 8.53905 12.3398 8.5358L13.3455 9.86899C13.4598 9.78276 13.5573 9.6826 13.6441 9.59581L12.4633 8.41495ZM12.6739 10.1955C12.7903 10.1567 12.9235 10.1142 13.0518 10.0505L12.3091 8.55474C12.3139 8.55234 12.3116 8.55415 12.2869 8.56316C12.2577 8.57378 12.2187 8.58687 12.1458 8.61117L12.6739 10.1955ZM12.3398 8.5358C12.3302 8.54305 12.3199 8.54939 12.3091 8.55474L13.0518 10.0505C13.1551 9.99923 13.2534 9.93846 13.3455 9.86899L12.3398 8.5358ZM16.3065 3.69353C16.4535 3.84053 16.539 3.92653 16.5992 3.9939C16.6554 4.0569 16.6545 4.06595 16.6448 4.04626L18.1411 3.30475C17.9899 2.99962 17.7203 2.74567 17.4873 2.51266L16.3065 3.69353ZM17.4873 5.75261C17.7203 5.5196 17.9899 5.26565 18.1411 4.96052L16.6448 4.21901C16.6545 4.19932 16.6554 4.20837 16.5992 4.27137C16.539 4.33874 16.4535 4.42474 16.3065 4.57174L17.4873 5.75261ZM16.6448 4.04625C16.6717 4.10068 16.6717 4.16459 16.6448 4.21902L18.1411 4.96052C18.3996 4.43887 18.3996 3.8264 18.1411 3.30475L16.6448 4.04625ZM15.4283 3.69353C15.5753 3.54652 15.6613 3.46097 15.7286 3.40081C15.7916 3.34456 15.8007 3.34547 15.781 3.35523L15.0395 1.85888C14.7344 2.01008 14.4804 2.27966 14.2474 2.51266L15.4283 3.69353ZM17.4873 2.51266C17.2543 2.27965 17.0004 2.01008 16.6952 1.85888L15.9537 3.35523C15.9341 3.34547 15.9431 3.34456 16.0061 3.40081C16.0735 3.46097 16.1595 3.54652 16.3065 3.69353L17.4873 2.51266ZM15.781 3.35523C15.8354 3.32826 15.8993 3.32826 15.9537 3.35523L16.6953 1.85888C16.1736 1.60037 15.5611 1.60037 15.0395 1.85888L15.781 3.35523ZM11.3888 7.85423C11.4131 7.78134 11.4262 7.74229 11.4368 7.71312C11.4458 7.6884 11.4477 7.68605 11.4453 7.69089L9.94948 6.94823C9.8858 7.07648 9.84334 7.20969 9.80453 7.32612L11.3888 7.85423ZM10.4042 6.35586C10.3174 6.44265 10.2172 6.54019 10.131 6.6545L11.4642 7.66024C11.4609 7.66455 11.4622 7.66189 11.4803 7.64278C11.5017 7.62023 11.5307 7.59106 11.5851 7.53673L10.4042 6.35586ZM11.4453 7.69089C11.4506 7.68011 11.4569 7.66985 11.4642 7.66024L10.131 6.6545C10.0615 6.74659 10.0008 6.84492 9.94947 6.94823L11.4453 7.69089ZM9.41887 8.48311C9.3403 8.71881 9.26225 8.95031 9.217 9.14291C9.17465 9.32311 9.11815 9.62817 9.23268 9.94933L10.8057 9.38841C10.8349 9.47031 10.8357 9.53391 10.8348 9.55679C10.8341 9.57569 10.8321 9.57025 10.8427 9.52492C10.853 9.48112 10.8703 9.41992 10.8984 9.33053C10.9264 9.2417 10.9606 9.13893 11.0032 9.01121L9.41887 8.48311ZM10.9888 8.99683C10.8611 9.0394 10.7583 9.07363 10.6695 9.10159C10.5801 9.12973 10.5189 9.14699 10.4751 9.15728C10.4298 9.16793 10.4243 9.16592 10.4432 9.1652C10.4661 9.16433 10.5297 9.16514 10.6116 9.19434L10.0507 10.7673C10.3718 10.8818 10.6769 10.8253 10.8571 10.783C11.0497 10.7377 11.2812 10.6597 11.5169 10.5811L10.9888 8.99683ZM9.23268 9.94933C9.36876 10.3309 9.66906 10.6312 10.0507 10.7673L10.6116 9.19434C10.7021 9.22663 10.7734 9.29788 10.8057 9.38841L9.23268 9.94933Z" fill="#0A77FF"/>
</g>
<defs>
<clipPath id="clip0_1_6203">
<path d="M0 8C0 3.58172 3.58172 0 8 0H12C16.4183 0 20 3.58172 20 8V12C20 16.4183 16.4183 20 12 20H8C3.58172 20 0 16.4183 0 12V8Z" fill="white"/>
</clipPath>
</defs>
</svg>
