<svg width="16" height="16" viewBox="0 0 16 16" fill="none" xmlns="http://www.w3.org/2000/svg">
<path d="M7.71859 14.7138C6.91945 14.7138 6.05409 13.1338 5.66365 10.6382C6.30068 10.6999 6.98566 10.7341 7.71859 10.7341V9.99661C6.99624 9.9977 6.27439 9.95883 5.55633 9.88017C5.40129 8.44359 5.40129 6.99451 5.55633 5.55794C6.99291 5.40291 8.44199 5.40291 9.87856 5.55794C9.95723 6.27599 9.9961 6.99784 9.99501 7.72019H10.7348C10.7348 6.9827 10.7005 6.29772 10.6389 5.66525C13.1345 6.06026 14.7145 6.92561 14.7145 7.72019C14.7143 8.19884 14.6653 8.67622 14.5684 9.14495L15.2922 9.29565C15.6375 7.63052 15.4239 5.89797 14.6844 4.36661C13.9449 2.83526 12.7208 1.59065 11.202 0.825739C9.68316 0.0608319 7.95441 -0.181638 6.28376 0.135921C4.61311 0.45348 3.09389 1.31333 1.96164 2.58215C0.829383 3.85098 0.147351 5.4579 0.0212801 7.15379C-0.10479 8.84967 0.332144 10.5398 1.26434 11.9621C2.19654 13.3844 3.57192 14.4594 5.17726 15.0205C6.78259 15.5816 8.52819 15.5974 10.1434 15.0655L9.9151 14.3645C9.20628 14.5975 8.46472 14.7154 7.71859 14.7138ZM14.5684 6.28858C13.7601 5.6721 12.4061 5.14695 10.5476 4.88665C10.2827 3.02807 9.76212 1.67409 9.14563 0.865815C10.4784 1.14642 11.7008 1.80875 12.6637 2.77204C13.6265 3.73532 14.2884 4.95796 14.5684 6.29087V6.28858ZM7.71859 0.719686C8.51774 0.719686 9.38309 2.29971 9.77353 4.79532C9.1365 4.73368 8.45152 4.69943 7.71859 4.69943C6.98566 4.69943 6.29611 4.73368 5.66365 4.79532C6.05409 2.29971 6.91945 0.721969 7.71859 0.721969V0.719686ZM6.29155 0.865815C5.67506 1.67409 5.14991 3.02807 4.88962 4.88665C3.03104 5.15151 1.67706 5.6721 0.868781 6.28858C1.14945 4.95681 1.81128 3.73537 2.77367 2.77298C3.73606 1.81059 4.95749 1.14877 6.28926 0.868099L6.29155 0.865815ZM4.79829 5.66068C4.73664 6.29772 4.70239 6.9827 4.70239 7.71563C4.70239 8.44856 4.73664 9.1381 4.79829 9.77057C2.30267 9.37556 0.722651 8.5102 0.722651 7.71563C0.722651 6.92105 2.30039 6.05341 4.79829 5.6584V5.66068ZM0.868781 9.14495C1.67706 9.76144 3.03104 10.2866 4.88962 10.5469C5.15448 12.4055 5.67506 13.7594 6.29155 14.5677C4.95894 14.2875 3.73665 13.6257 2.77375 12.6628C1.81085 11.6999 1.14895 10.4776 0.868781 9.14495Z" fill="#3F3F46"/>
<path d="M9.63434 8.90973L11.3765 15.36L12.5364 12.41L16.0001 11.9122L9.63434 8.90973Z" fill="#3F3F46"/>
</svg>
