<svg width="18" height="15" viewBox="0 -1.5 18 18" fill="none" xmlns="http://www.w3.org/2000/svg">
<path d="M2.77225 6.53331C1.09987 7.75986 0.0205087 10.512 1.80882 13.0187L1.80881 13.0188L1.80936 13.0195C3.33179 15.0726 6.24236 15.5047 8.29551 13.9822C9.62318 12.9978 10.2429 11.4311 10.1248 9.89491L12.4353 8.1817L12.4356 8.18146C12.5292 8.11085 12.5931 8.00269 12.6097 7.88659C12.6097 7.88655 12.6097 7.88651 12.6097 7.88646L12.7926 6.6547L14.0246 6.83758L14.0249 6.83762C14.2572 6.87075 14.4961 6.69365 14.5319 6.46168L14.5319 6.46139L14.7148 5.22935L15.9468 5.41223L15.9475 5.41232C16.1673 5.44201 16.3939 5.28596 16.4445 5.07003L17.2204 1.76388C17.25 1.63779 17.2146 1.50724 17.1428 1.40606C17.071 1.30488 16.9594 1.22835 16.8306 1.21473L16.8301 1.21468L14.1592 0.960787L14.1587 0.960744C14.0489 0.951424 13.9377 0.984933 13.8501 1.04992L7.21965 5.96642C5.78213 5.40347 4.10229 5.54714 2.77225 6.53331ZM2.77225 6.53331C2.77229 6.53329 2.77232 6.53326 2.77236 6.53324L2.80193 6.57356L2.77214 6.53339C2.77218 6.53337 2.77221 6.53334 2.77225 6.53331ZM16.2336 2.05877L15.6713 4.46395L14.4005 4.27531L14.4002 4.27527C14.1678 4.24215 13.929 4.41924 13.8932 4.65121L13.8932 4.6515L13.7103 5.88354L12.4783 5.70066L12.478 5.70062C12.2456 5.66749 12.0068 5.84459 11.971 6.07656L11.9709 6.07684L11.7488 7.57323L9.41273 9.30546C9.28437 9.40065 9.21404 9.56688 9.23512 9.72529L9.23518 9.72569C9.4208 11.039 8.90342 12.414 7.76086 13.2612C6.09836 14.494 3.76323 14.1474 2.53047 12.4849C1.29783 10.8225 1.64426 8.48761 3.3064 7.25478C3.79941 6.90504 4.32367 6.64748 4.93726 6.55705C5.55054 6.46666 6.2572 6.54264 7.11598 6.8664C7.26135 6.93477 7.44135 6.91677 7.57127 6.82323L7.57183 6.82281L14.2492 1.87149L16.2336 2.05877ZM5.41382 10.3468C4.94099 9.70918 4.02878 9.57377 3.39112 10.0466C2.75345 10.5194 2.61806 11.4316 3.09089 12.0693C3.56372 12.707 4.47592 12.8424 5.11359 12.3695C5.75125 11.8967 5.88665 10.9845 5.41382 10.3468ZM3.81196 11.5346C3.6288 11.2876 3.67878 10.9508 3.9258 10.7677C4.17281 10.5845 4.50959 10.6345 4.69275 10.8815C4.87591 11.1285 4.82592 11.4653 4.57891 11.6485C4.33189 11.8316 3.99512 11.7816 3.81196 11.5346Z" fill="#0A77FF" stroke="#0A77FF" stroke-width="0.1"/>
</svg>
