<svg width="21" height="24" viewBox="0 0 21 24" fill="none" xmlns="http://www.w3.org/2000/svg">
<path d="M4 22H18C18.5304 22 19.0391 21.7893 19.4142 21.4142C19.7893 21.0391 20 20.5304 20 20V7L15 2H6C5.46957 2 4.96086 2.21071 4.58579 2.58579C4.21071 2.96086 4 3.46957 4 4V8" stroke="#3F3F46" stroke-width="2" stroke-linecap="round" stroke-linejoin="round"/>
<path d="M0.215 18C0.077 18 -0.043 17.949 -0.145 17.847C-0.241 17.745 -0.289 17.625 -0.289 17.487V11.943C-0.289 11.805 -0.241 11.685 -0.145 11.583C-0.043 11.481 0.077 11.43 0.215 11.43H0.503C0.641 11.43 0.761 11.481 0.863 11.583C0.965 11.685 1.016 11.805 1.016 11.943V16.875C1.016 16.929 1.04 16.956 1.088 16.956H3.401C3.539 16.956 3.656 17.007 3.752 17.109C3.854 17.205 3.905 17.322 3.905 17.46V17.487C3.905 17.625 3.854 17.745 3.752 17.847C3.656 17.949 3.539 18 3.401 18H0.215ZM8.68245 14.715C8.68245 13.155 8.11245 12.375 6.97245 12.375C5.83245 12.375 5.26245 13.155 5.26245 14.715C5.26245 16.275 5.83245 17.055 6.97245 17.055C8.11245 17.055 8.68245 16.275 8.68245 14.715ZM9.15945 17.199C8.62545 17.793 7.89645 18.09 6.97245 18.09C6.04845 18.09 5.31645 17.793 4.77645 17.199C4.24245 16.605 3.97545 15.777 3.97545 14.715C3.97545 13.653 4.24245 12.825 4.77645 12.231C5.31645 11.637 6.04845 11.34 6.97245 11.34C7.89645 11.34 8.62545 11.637 9.15945 12.231C9.69945 12.825 9.96945 13.653 9.96945 14.715C9.96945 15.777 9.69945 16.605 9.15945 17.199ZM13.6427 18.09C12.6767 18.09 11.8937 17.79 11.2937 17.19C10.6997 16.584 10.4027 15.759 10.4027 14.715C10.4027 13.659 10.6997 12.834 11.2937 12.24C11.8877 11.64 12.7097 11.34 13.7597 11.34C14.1917 11.34 14.5847 11.37 14.9387 11.43C15.0827 11.454 15.2027 11.526 15.2987 11.646C15.3947 11.76 15.4427 11.892 15.4427 12.042V12.078C15.4427 12.204 15.3917 12.306 15.2897 12.384C15.1877 12.462 15.0737 12.486 14.9477 12.456C14.5937 12.378 14.2427 12.339 13.8947 12.339C13.1687 12.339 12.6167 12.54 12.2387 12.942C11.8667 13.338 11.6807 13.929 11.6807 14.715C11.6807 15.477 11.8637 16.065 12.2297 16.479C12.6017 16.887 13.1027 17.091 13.7327 17.091C13.9907 17.091 14.2457 17.055 14.4977 16.983C14.5457 16.971 14.5697 16.938 14.5697 16.884V15.102C14.5697 15.048 14.5457 15.021 14.4977 15.021H13.3727C13.2407 15.021 13.1267 14.976 13.0307 14.886C12.9407 14.79 12.8957 14.676 12.8957 14.544C12.8957 14.406 12.9407 14.292 13.0307 14.202C13.1267 14.106 13.2407 14.058 13.3727 14.058H15.2627C15.4007 14.058 15.5207 14.109 15.6227 14.211C15.7247 14.313 15.7757 14.433 15.7757 14.571V17.19C15.7757 17.346 15.7307 17.487 15.6407 17.613C15.5507 17.739 15.4337 17.823 15.2897 17.865C14.7797 18.015 14.2307 18.09 13.6427 18.09Z" fill="#3F3F46"/>
</svg>
